<?xml version="1.0" encoding="utf-8"?>
<!-- Generator: Adobe Illustrator 15.1.0, SVG Export Plug-In . SVG Version: 6.00 Build 0)  -->
<!DOCTYPE svg PUBLIC "-//W3C//DTD SVG 1.1//EN" "http://www.w3.org/Graphics/SVG/1.1/DTD/svg11.dtd">
<svg version="1.1" id="レイヤー_1" xmlns="http://www.w3.org/2000/svg" xmlns:xlink="http://www.w3.org/1999/xlink" x="0px"
	 y="0px" width="419.53px" height="283.46px" viewBox="0 0 419.53 283.46" enable-background="new 0 0 419.53 283.46"
	 xml:space="preserve">
<g>
	<path fill="none" stroke="#D34917" stroke-miterlimit="10" d="M342.449,160.546c0,2.553-3.156,4.621-5.818,4.621h-8.027
		c-2.662,0-5.82-2.068-5.82-4.621v-39.021c0-2.551,3.158-6.538,5.82-6.538h8.027c2.662,0,5.818,3.987,5.818,6.538V160.546z"/>
	<path fill="none" stroke="#D34917" stroke-miterlimit="10" d="M338.518,149.754c0,0.748-1.295,1.354-2.893,1.354h-6.018
		c-1.598,0-2.893-0.606-2.893-1.354v-11.998c0-0.748,1.295-1.354,2.893-1.354h6.018c1.598,0,2.893,0.607,2.893,1.354V149.754z"/>
	<g>
		<line fill="none" stroke="#D34917" stroke-miterlimit="10" x1="337.893" y1="149.824" x2="342.367" y2="154.619"/>
		<line fill="none" stroke="#D34917" stroke-miterlimit="10" x1="327.342" y1="149.824" x2="322.867" y2="154.619"/>
	</g>
	<g>
		<line fill="none" stroke="#D34917" stroke-miterlimit="10" x1="323.451" y1="128.73" x2="326.783" y2="137.04"/>
		<line fill="none" stroke="#D34917" stroke-miterlimit="10" x1="341.783" y1="129.209" x2="338.449" y2="137.52"/>
	</g>
	<g>
		<polyline fill="none" stroke="#D34917" stroke-miterlimit="10" points="328.533,114.667 326.582,127.426 324.199,129.209 		"/>
		<polyline fill="none" stroke="#D34917" stroke-miterlimit="10" points="336.701,114.667 338.65,127.426 341.033,129.209 		"/>
	</g>
	<g>
		<polyline fill="none" stroke="#D34917" stroke-miterlimit="10" points="339.182,164.851 340.551,157.404 339.713,156.058 		"/>
		<polyline fill="none" stroke="#D34917" stroke-miterlimit="10" points="326.051,164.851 324.682,157.404 325.52,156.058 		"/>
	</g>
	<path fill="none" stroke="#D34917" stroke-miterlimit="10" d="M324.797,131.925L324.797,131.925c0-2.029,1.443-3.675,4.977-3.675
		h5.686c3.533,0,4.977,1.646,4.977,3.675l0,0"/>
	<path fill="none" stroke="#D34917" stroke-miterlimit="10" d="M340.436,154.299v-0.959c0,1.941-1.443,4.476-4.977,4.476h-5.686
		c-3.533,0-4.977-2.534-4.977-4.476v0.959"/>
	<g>
		<line fill="none" stroke="#D34917" stroke-miterlimit="10" x1="322.83" y1="142.314" x2="326.402" y2="143.592"/>
		<line fill="none" stroke="#D34917" stroke-miterlimit="10" x1="342.402" y1="142.314" x2="338.832" y2="143.592"/>
	</g>
</g>
<g>
	<path fill="none" stroke="#D34917" stroke-miterlimit="10" d="M322.567,127.999L322.567,127.999c-0.317,0-0.574-0.261-0.574-0.583
		v-6.667c0-0.322,0.257-0.583,0.574-0.583l0,0"/>
	<path fill="none" stroke="#D34917" stroke-miterlimit="10" d="M342.666,127.999L342.666,127.999c0.317,0,0.574-0.261,0.574-0.583
		v-6.667c0-0.322-0.257-0.583-0.574-0.583l0,0"/>
</g>
<g>
	<path fill="none" stroke="#D34917" stroke-miterlimit="10" d="M322.408,160.498L322.408,160.498c-0.322,0-0.584-0.261-0.584-0.583
		v-6.667c0-0.322,0.262-0.583,0.584-0.583l0,0"/>
	<path fill="none" stroke="#D34917" stroke-miterlimit="10" d="M342.826,160.498L342.826,160.498c0.322,0,0.582-0.261,0.582-0.583
		v-6.667c0-0.322-0.26-0.583-0.582-0.583l0,0"/>
</g>
</svg>
